<svg width="180" height="180" viewBox="0 0 180 180" fill="none" xmlns="http://www.w3.org/2000/svg">
<circle opacity="0.29" cx="90" cy="90" r="90" fill="#6A890D"/>
<circle cx="90" cy="90" r="76.0118" fill="#DA5D9C"/>
<path d="M92.302 40.78C93.7571 41.2393 95.2392 41.6175 96.6405 42.1578C97.8261 42.6171 98.9579 43.2656 100.197 43.8869C99.8202 44.4003 99.4968 44.8055 99.1465 45.3189C94.2422 44.1571 89.6612 44.9676 85.6191 48.1016C81.2268 51.4788 78.3974 55.8826 77.2386 61.3131C76.6458 64.0958 76.3494 66.9056 77.2925 69.6344C78.6938 73.741 81.5502 76.4697 85.7808 77.4964C87.6941 77.9557 89.7151 77.9827 91.7092 78.0367C92.5984 78.0637 93.4877 77.7125 94.4039 77.5234C98.4998 76.6859 101.68 74.3894 103.647 70.8231C104.805 68.7428 105.29 66.2572 103.701 63.7986C102.434 61.8264 100.844 60.3675 98.9848 58.9626C97.5028 57.8549 96.0476 57.5306 94.35 57.5306C92.1673 57.5306 90.766 58.8005 89.6343 60.4485C89.23 61.0159 88.8258 61.6373 88.6642 62.3127C88.2869 63.8797 89.3378 65.7439 90.9277 66.0681C91.4936 66.2032 92.3559 65.8519 92.814 65.4197C93.7571 64.5551 94.7811 63.6636 95.0237 62.2316C95.1314 61.6913 95.4548 61.205 95.6704 60.6917C95.8051 60.6646 95.9398 60.6376 96.0746 60.6106C96.5596 61.6913 97.2872 62.7179 97.4758 63.8527C97.7453 65.3927 97.7992 67.0137 97.5836 68.5267C97.3141 70.2558 95.0506 71.8228 92.7062 71.1203C91.6283 70.7961 90.4696 70.7691 89.3648 70.4989C87.721 70.1207 85.7539 67.7702 85.5922 66.0681C85.2958 63.3393 85.2688 60.5836 87.0204 58.3412C88.26 56.7742 89.9037 55.4503 91.5744 54.3426C94.0266 52.6946 96.8021 51.749 99.8471 51.803C103.62 51.857 106.18 53.8293 108.039 56.9092C109.791 59.8271 109.602 63.0692 109.036 66.1762C108.659 68.2565 107.716 70.2558 106.799 72.174C106.287 73.2547 105.344 74.0922 104.752 75.2539C105.237 74.9297 105.722 74.6055 106.18 74.2543C109.871 71.4985 114.021 70.2558 118.629 70.1747C122.617 70.0937 126.579 70.4449 129.785 72.9575C135.525 77.4423 139.378 83.0889 139.244 90.7888C139.19 93.2204 137.95 96.9758 136.091 100.11C134.178 99.7586 134.77 98.3266 134.959 97.2189C135.687 93.0043 134.528 89.2489 132.103 85.8987C128.546 81.0086 123.668 78.0637 117.74 76.983C113.86 76.2806 110.087 76.4697 106.88 79.1444C104.374 81.2247 102.65 83.8724 102.165 87.1145C101.949 88.6275 102.272 90.2215 102.192 91.7885C102.057 94.193 102.838 96.3814 103.97 98.3537C105.856 101.677 108.551 104.135 112.431 104.865C113.321 105.027 114.452 104.811 115.261 104.379C118.009 102.947 120.327 100.974 121.728 98.1105C123.318 94.8414 122.698 91.9776 119.896 89.6811C118.656 88.6545 116.096 88.5194 114.803 89.438C113.752 90.1674 113.967 92.3829 114.911 93.1664C116.069 94.112 117.147 95.0846 118.656 95.4088C118.71 95.4088 118.818 96.1112 118.656 96.2733C117.497 97.5702 112.889 98.7319 111.407 97.8944C110.006 97.1379 108.928 95.9762 108.578 94.2741C108.443 93.5716 107.958 92.9502 107.581 92.1937C108.443 93.0583 108.551 92.5179 108.767 91.6804C109.386 89.1678 110.33 86.8173 113.051 85.8447C113.671 85.6286 114.345 85.6286 114.991 85.5475C120.165 84.8721 123.345 87.7899 125.77 91.7885C127.279 94.2741 128.249 97.0028 128.195 100.029C128.141 103.919 125.285 107.404 121.62 108.755C118.468 109.917 115.207 109.485 112.135 108.647C109.818 107.999 107.581 106.864 105.722 105.189C105.614 105.081 105.425 105.081 104.967 104.919C105.452 105.675 105.775 106.189 106.126 106.702C108.282 110.025 109.413 113.618 109.683 117.59C109.952 121.67 109.602 125.614 107.392 129.018C104.159 133.935 99.6316 137.313 93.838 138.771C88.8258 140.041 84.2987 138.636 79.9333 136.124C80.2836 134.935 80.8226 134.665 82.0891 134.854C86.9934 135.637 91.4666 134.449 95.2662 131.153C99.2004 127.721 101.787 123.426 102.811 118.265C103.539 114.591 103.593 110.917 101.464 107.675C100.063 105.567 98.0417 103.919 95.6704 102.893C92.7601 101.623 89.7959 101.596 86.6431 102.19C83.8406 102.73 81.3885 103.757 79.3405 105.54C77.0231 107.567 74.9212 109.971 75.2176 113.429C75.3254 114.483 75.9452 115.537 76.5111 116.482C77.1578 117.563 77.9393 118.563 78.8016 119.481C80.3106 121.048 82.2777 121.886 84.2718 122.588C84.676 122.723 85.188 122.858 85.5653 122.723C88.1252 121.832 90.4696 120.67 91.0894 117.617C91.2241 116.887 91.6553 116.212 90.6852 115.672C90.4427 115.537 90.4696 114.861 90.3618 114.429C89.1761 113.591 88.1252 113.78 87.0204 114.726C86.0234 115.591 85.2419 116.482 85.0263 117.86C84.9455 118.292 84.4065 118.617 84.0562 118.995C83.8407 118.725 83.5981 118.454 83.4095 118.157C81.604 115.645 81.6849 112.97 82.7358 110.214C83.0592 109.35 83.7059 108.944 84.7299 108.701C87.1551 108.107 89.2839 108.539 91.3319 109.836C93.811 111.403 94.7811 113.916 94.4847 116.833C94.1075 120.535 92.0864 122.993 89.257 125.074C86.7509 126.938 83.9215 127.938 80.9304 128.208C77.4812 128.532 74.7326 126.938 72.6307 124.209C71.1217 122.237 70.5558 120.048 70.6636 117.563C70.7714 114.969 71.2834 112.457 72.0379 109.998C72.4151 108.809 73.2774 107.783 73.9511 106.702C74.1936 106.324 74.4631 105.946 74.5439 105.432C73.1427 106.243 71.7954 107.161 70.3133 107.81C64.2232 110.43 57.8907 111.025 51.9085 107.918C46.1957 104.973 42.6387 99.8936 41.1836 93.5986C40.0518 88.6545 41.2105 83.9265 43.9591 79.8469C45.0639 80.1441 45.3604 80.9005 45.1717 81.9542C44.3364 86.5471 45.3065 90.7078 48.1898 94.3821C53.0941 100.623 59.5345 103.541 67.403 103.082C70.7983 102.893 73.52 101.028 75.3793 98.2726C77.9932 94.3821 78.6668 90.1945 77.4273 85.4664C76.538 82.0082 74.7326 79.3606 72.1187 77.2262C70.1516 75.6322 67.8611 74.2813 65.1664 75.308C63.9807 75.7673 62.8489 76.5238 61.8519 77.3343C60.801 78.1988 59.9117 79.2795 59.0225 80.3332C58.8338 80.5493 58.9686 81.0086 58.9147 81.3598C58.8877 81.4679 58.8338 81.603 58.753 81.684C57.244 83.17 57.1901 85.3314 57.9985 87.3036C58.753 89.1408 60.1812 89.8973 61.6633 90.7348C62.7951 91.3562 64.6005 90.978 65.2203 90.0864C66.2443 88.6275 65.4359 86.1419 63.7382 85.5475C62.7142 85.1693 61.7172 84.764 60.6124 84.3587C61.2321 82.8998 62.4986 82.6296 63.6843 82.2784C63.9538 82.1974 64.1694 81.9002 64.3041 81.5219C66.3521 81.7381 68.7503 81.603 70.3672 83.4672C70.933 84.1156 71.2025 85.1693 71.2564 86.0608C71.4181 88.8166 70.3133 91.1671 68.5617 93.2204C68.1575 93.7067 67.403 94.0579 66.7832 94.112C65.382 94.2741 63.9268 94.112 62.4986 94.2741C60.8549 94.4632 59.6153 93.6527 58.3757 92.8692C55.8158 91.2481 54.199 88.7626 53.0672 86.0068C51.9354 83.2781 51.127 80.4683 52.0971 77.4423C53.0941 74.3894 55.223 72.228 58.0793 71.1743C60.0465 70.4449 62.2561 70.2558 64.5197 70.7691C66.1634 71.1473 67.888 71.2014 69.451 72.0119C70.5019 72.5522 71.5528 73.0385 72.6307 73.5519C73.1427 73.795 73.6816 74.0382 74.3014 74.2003C70.6905 69.3372 69.7204 63.7176 70.2594 57.8548C70.6905 53.1539 72.8193 49.2904 76.6189 46.2645C79.3944 44.049 82.2777 42.1038 85.7539 41.2122C86.2389 41.0772 86.724 40.9151 87.1821 40.7529C88.8797 40.78 90.5774 40.78 92.302 40.78ZM102.111 77.7125C94.5117 83.4402 86.724 83.6833 78.3165 78.523C83.167 86.4931 83.5981 94.22 78.2087 101.893C81.604 99.0561 85.5383 98.0565 89.769 97.8674C94.2691 97.6782 98.2842 99.0831 101.814 101.866C96.4518 93.6527 96.1554 85.6826 102.111 77.7125Z" fill="white"/>
</svg>
